<svg width="44" height="42" viewBox="0 0 44 42" fill="none" xmlns="http://www.w3.org/2000/svg">
<path d="M24.7115 10.0602C27.936 11.1309 30.25 14.0575 30.25 17.5V17.5275V23.9748L34.05 27.3604C34.6583 27.9022 34.2564 28.875 33.4244 28.875H10.5757C9.74369 28.875 9.34199 27.9022 9.95022 27.3604L13.7499 23.9752V17.5C13.7499 14.0575 16.0641 11.1309 19.2885 10.0602C19.5076 8.81986 20.6382 7.875 22 7.875C23.3618 7.875 24.4924 8.81986 24.7115 10.0602Z" stroke="black" stroke-linecap="round" stroke-linejoin="round"/>
<path d="M19.4064 32.375C19.7839 33.3945 20.8027 34.125 22 34.125C23.1974 34.125 24.216 33.3945 24.5934 32.375H19.4064Z" stroke="black"/>
</svg>
